<?xml version="1.0" ?><!DOCTYPE svg  PUBLIC '-//W3C//DTD SVG 1.1//EN'  'http://www.w3.org/Graphics/SVG/1.1/DTD/svg11.dtd'><svg enable-background="new 0 0 512 512" id="Layer_1" version="1.1" viewBox="0 0 512 512" xml:space="preserve" xmlns="http://www.w3.org/2000/svg" xmlns:xlink="http://www.w3.org/1999/xlink"><g><path d="M423.5,259.8l-35.4,61.4h22.4   c-18.1,59.4-68.9,103-130.2,112.2V148.5h53.6v-27.7h-53.6V48.7c0-3.3-2.7-6-6-6h-36.6c-3.3,0-6,2.7-6,6v72.1h-53.6v27.7h53.6v284.9   c-61.3-9.2-112.1-52.8-130.2-112.2h22.4l-35.4-61.4l-35.4,61.4h20.8c9.7,39,30.8,80.2,60.5,105.4c27.7,23.5,61.6,38.3,97.3,43v12.2   c0,13.4,10.9,24.3,24.3,24.3c13.4,0,24.3-10.9,24.3-24.3v-12.2c35.7-4.7,69.6-19.5,97.3-43c29.7-25.2,50.8-66.4,60.5-105.4h20.8   L423.5,259.8z" fill="#FBC858" stroke="#000000" stroke-miterlimit="10" stroke-width="8"/><path d="M173.6,167.4h-4.1c-8.1,0-14.7-6.6-14.7-14.7   v-41.9c0-8.1,6.6-14.7,14.7-14.7h4.1c8.1,0,14.7,6.6,14.7,14.7v41.9C188.3,160.8,181.7,167.4,173.6,167.4z" fill="#FF1901" stroke="#000000" stroke-miterlimit="10" stroke-width="8"/><path d="M333.4,167.4h-4.1c-8.1,0-14.7-6.6-14.7-14.7   v-41.9c0-8.1,6.6-14.7,14.7-14.7h4.1c8.1,0,14.7,6.6,14.7,14.7v41.9C348.1,160.8,341.5,167.4,333.4,167.4z" fill="#FF1901" stroke="#000000" stroke-miterlimit="10" stroke-width="8"/><circle cx="256" cy="45.4" fill="#FF1901" r="39.4" stroke="#000000" stroke-miterlimit="10" stroke-width="8"/><circle cx="256" cy="45.4" fill="#FFFFFF" r="16.4" stroke="#000000" stroke-miterlimit="10" stroke-width="8"/></g></svg>