<?xml version="1.0" ?><svg viewBox="0 0 22.462 22.462" xmlns="http://www.w3.org/2000/svg"><g data-name="Layer 2" id="Layer_2"><g data-name="Layer 1" id="Layer_1-2"><path d="M11.251,14.009a1.4,1.4,0,0,0-1.359,1.063H7.168a1.4,1.4,0,1,0,0,.681H9.892a1.4,1.4,0,1,0,1.359-1.744ZM5.809,16.136a.724.724,0,0,1,0-1.447A.724.724,0,0,1,5.809,16.136Zm5.442,0a.724.724,0,0,1,0-1.447A.724.724,0,0,1,11.251,16.136ZM14.5,8.961a.344.344,0,0,0-.251-.164l-9.6-1.2A1.835,1.835,0,0,0,2.851,6.068a.341.341,0,0,0,0,.681A1.157,1.157,0,0,1,4.007,7.9v3.87a1.4,1.4,0,0,0,1.4,1.4h6.633a1.39,1.39,0,0,0,1.3-.885l1.189-3.025A.344.344,0,0,0,14.5,8.961ZM6.858,12.489H5.4a.717.717,0,0,1-.716-.715V8.289l2.573.321Zm3.062,0H7.543L7.938,8.7l2.635.329Zm2.783-.454c-.247.7-1.282.392-2.089.454l.637-3.381,2.481.31ZM4.787,5.183C10.2-.517,19.38,5.61,16.168,12.79a.341.341,0,0,1-.618-.287c2.894-6.472-5.38-12-10.262-6.859A.341.341,0,0,1,4.787,5.183ZM22.236,16.438l-3.969-1.36C22.4,8.707,17.522-.109,9.883,0A9.888,9.888,0,0,0,0,9.872C-.108,17.489,8.7,22.365,15.065,18.259l1.366,3.977a.343.343,0,0,0,.633.028l1.6-3.594,3.6-1.6A.342.342,0,0,0,22.236,16.438ZM9.883,19.062c-12.2-.505-12.2-17.877,0-18.38,7.181-.1,11.711,8.25,7.719,14.168l-3.545-1.215a.34.34,0,0,0-.432.432L14.838,17.6A9.134,9.134,0,0,1,9.883,19.062Zm8.385-.961a.345.345,0,0,0-.172.173l-1.3,2.922-2.3-6.691,6.7,2.3Z" data-name="order now" id="order_now"/></g></g></svg>