<?xml version="1.0" encoding="UTF-8" standalone="no"?>
<!-- Created with Inkscape (http://www.inkscape.org/) -->

<svg
   width="64pt"
   height="64pt"
   viewBox="0 0 22.577778 22.577778"
   version="1.1"
   id="svg831"
   inkscape:version="1.1.1 (3bf5ae0d25, 2021-09-20)"
   sodipodi:docname="Export - Unblash - 64px.svg"
   inkscape:export-filename="C:\Users\User\Desktop\CARLOS PROJECT\6. JUNI 2\DONE\FILEDLINE\09 - Jetski.png"
   inkscape:export-xdpi="576"
   inkscape:export-ydpi="576"
   xmlns:inkscape="http://www.inkscape.org/namespaces/inkscape"
   xmlns:sodipodi="http://sodipodi.sourceforge.net/DTD/sodipodi-0.dtd"
   xmlns="http://www.w3.org/2000/svg"
   xmlns:svg="http://www.w3.org/2000/svg"
   xmlns:rdf="http://www.w3.org/1999/02/22-rdf-syntax-ns#"
   xmlns:cc="http://creativecommons.org/ns#"
   xmlns:dc="http://purl.org/dc/elements/1.1/">
  <defs
     id="defs825">
    <pattern
       id="EMFhbasepattern"
       patternUnits="userSpaceOnUse"
       width="6"
       height="6"
       x="0"
       y="0" />
    <pattern
       id="EMFhbasepattern-9"
       patternUnits="userSpaceOnUse"
       width="6"
       height="6"
       x="0"
       y="0" />
    <pattern
       id="EMFhbasepattern-0"
       patternUnits="userSpaceOnUse"
       width="6"
       height="6"
       x="0"
       y="0" />
    <pattern
       id="EMFhbasepattern-7"
       patternUnits="userSpaceOnUse"
       width="6"
       height="6"
       x="0"
       y="0" />
    <pattern
       id="EMFhbasepattern-2"
       patternUnits="userSpaceOnUse"
       width="6"
       height="6"
       x="0"
       y="0" />
    <pattern
       id="EMFhbasepattern-98"
       patternUnits="userSpaceOnUse"
       width="6"
       height="6"
       x="0"
       y="0" />
    <pattern
       id="EMFhbasepattern-6"
       patternUnits="userSpaceOnUse"
       width="6"
       height="6"
       x="0"
       y="0" />
    <pattern
       id="EMFhbasepattern-01"
       patternUnits="userSpaceOnUse"
       width="6"
       height="6"
       x="0"
       y="0" />
    <pattern
       id="EMFhbasepattern-07"
       patternUnits="userSpaceOnUse"
       width="6"
       height="6"
       x="0"
       y="0" />
    <pattern
       id="EMFhbasepattern-8"
       patternUnits="userSpaceOnUse"
       width="6"
       height="6"
       x="0"
       y="0" />
    <pattern
       id="EMFhbasepattern-4"
       patternUnits="userSpaceOnUse"
       width="6"
       height="6"
       x="0"
       y="0" />
    <pattern
       id="EMFhbasepattern-40"
       patternUnits="userSpaceOnUse"
       width="6"
       height="6"
       x="0"
       y="0" />
    <pattern
       id="EMFhbasepattern-08"
       patternUnits="userSpaceOnUse"
       width="6"
       height="6"
       x="0"
       y="0" />
    <pattern
       id="EMFhbasepattern-04"
       patternUnits="userSpaceOnUse"
       width="6"
       height="6"
       x="0"
       y="0" />
    <pattern
       id="EMFhbasepattern-014"
       patternUnits="userSpaceOnUse"
       width="6"
       height="6"
       x="0"
       y="0" />
    <pattern
       id="EMFhbasepattern-27"
       patternUnits="userSpaceOnUse"
       width="6"
       height="6"
       x="0"
       y="0" />
    <pattern
       id="EMFhbasepattern-09"
       patternUnits="userSpaceOnUse"
       width="6"
       height="6"
       x="0"
       y="0" />
    <pattern
       id="EMFhbasepattern-5"
       patternUnits="userSpaceOnUse"
       width="6"
       height="6"
       x="0"
       y="0" />
    <pattern
       id="EMFhbasepattern-018"
       patternUnits="userSpaceOnUse"
       width="6"
       height="6"
       x="0"
       y="0" />
  </defs>
  <sodipodi:namedview
     id="base"
     pagecolor="#ffffff"
     bordercolor="#666666"
     borderopacity="1.0"
     inkscape:pageopacity="0.0"
     inkscape:pageshadow="2"
     inkscape:zoom="3.2460938"
     inkscape:cx="40.972323"
     inkscape:cy="42.666667"
     inkscape:document-units="pt"
     inkscape:current-layer="layer1"
     showgrid="false"
     units="pt"
     inkscape:window-width="960"
     inkscape:window-height="1001"
     inkscape:window-x="951"
     inkscape:window-y="-9"
     inkscape:window-maximized="0"
     inkscape:pagecheckerboard="true"
     inkscape:showpageshadow="false"
     inkscape:object-paths="true"
     inkscape:snap-intersection-paths="true"
     inkscape:snap-smooth-nodes="true"
     inkscape:snap-midpoints="true"
     showguides="true"
     inkscape:snap-bbox="true"
     inkscape:bbox-nodes="true"
     inkscape:snap-nodes="false"
     inkscape:snap-global="true"
     inkscape:snap-others="false">
    <inkscape:grid
       type="xygrid"
       id="grid1378" />
    <sodipodi:guide
       position="0.97013831,21.607643"
       orientation="78.000048,0"
       id="guide1380"
       inkscape:locked="false" />
    <sodipodi:guide
       position="0.97013831,0.97013129"
       orientation="0,78.000005"
       id="guide1382"
       inkscape:locked="false" />
    <sodipodi:guide
       position="21.607639,0.97013129"
       orientation="-78.000048,0"
       id="guide1384"
       inkscape:locked="false" />
    <sodipodi:guide
       position="21.607639,21.607643"
       orientation="0,-78.000005"
       id="guide1386"
       inkscape:locked="false" />
  </sodipodi:namedview>
  <metadata
     id="metadata828">
    <rdf:RDF>
      <cc:Work
         rdf:about="">
        <dc:format>image/svg+xml</dc:format>
        <dc:type
           rdf:resource="http://purl.org/dc/dcmitype/StillImage" />
      </cc:Work>
    </rdf:RDF>
  </metadata>
  <g
     inkscape:label="Icon"
     inkscape:groupmode="layer"
     id="layer1"
     transform="translate(0,-274.42223)">
    <g
       id="g29814"
       style="display:inline;stroke-width:0.802749"
       transform="matrix(1.2457187,0,0,1.2457187,0.64024413,-72.076923)">
      <g
         id="g10244"
         style="display:inline;stroke-width:0.802749">
        <path
           style="color:#000000;fill:#ececec;stroke-width:0.802749;stroke-linecap:round;stroke-linejoin:round;-inkscape-stroke:none"
           d="m 13.228516,283.24414 c -0.435239,0 -0.792969,0.35773 -0.792969,0.79297 v 1.58594 a 0.26460996,0.26460996 0 0 0 0.263672,0.26367 h 2.646484 a 0.26460996,0.26460996 0 0 0 0.265625,-0.26367 v -1.58594 c 0,-0.43524 -0.359683,-0.79297 -0.794922,-0.79297 z"
           id="path932645" />
        <path
           style="color:#000000;fill:#3a4d5c;fill-opacity:1;stroke-width:0.802749;stroke-linecap:round;stroke-linejoin:round;-inkscape-stroke:none"
           d="m 10.492188,281.60352 -0.882813,0.006 a 0.26460996,0.26460996 0 0 0 -0.2617187,0.2461 c -0.1499931,2.31076 -0.24171,4.6227 -0.3515625,6.92969 a 0.26460996,0.26460996 0 0 0 0.2636718,0.27734 h 1.5878904 a 0.26460996,0.26460996 0 0 0 0.263672,-0.27734 c -0.111722,-2.30856 -0.203235,-4.62125 -0.353515,-6.9336 a 0.26460996,0.26460996 0 0 0 -0.265625,-0.24804 z"
           id="path977428" />
        <path
           style="color:#000000;fill:#3a4d5c;fill-opacity:1;stroke-width:0.802749;stroke-linecap:round;stroke-linejoin:round;-inkscape-stroke:none"
           d="m 4.2324219,280.86133 c -0.4252835,0 -0.7014201,0.48895 -0.4824219,0.85351 l 0.1132813,0.1875 c 0.3010869,0.50167 0.8426503,0.8081 1.4277343,0.8086 l 3.3339844,0.002 a 0.26460996,0.26460996 0 0 0 0.265625,-0.26367 V 281.125 A 0.26460996,0.26460996 0 0 0 8.625,280.86133 Z"
           id="path983137" />
        <path
           id="path149907"
           style="color:#000000;fill:#143441;fill-opacity:1;stroke-width:3.03402;stroke-linecap:round;stroke-linejoin:round;-inkscape-stroke:none"
           d="m 29.720703,3.0039062 c -0.07624,0.2531048 -0.119141,0.5203419 -0.119141,0.796875 v 5.3964844 c 0,0.2784956 0.04186,0.5476453 0.119141,0.8027344 l 2.876953,0.002 A 1.0001006,1.0001006 0 0 0 33.601562,9.0058594 V 4 A 1.0001006,1.0001006 0 0 0 32.597656,3.0039062 Z"
           transform="matrix(0.26458334,0,0,0.26458334,0,280.06666)" />
        <path
           style="color:#000000;fill:#dc1c4b;fill-opacity:1;stroke-width:0.802749;stroke-linecap:round;stroke-linejoin:round;-inkscape-stroke:none"
           d="m 2.2167969,285.72266 c -0.3442596,0 -0.6289063,0.28464 -0.6289063,0.6289 v 0.85938 c 0,0.34426 0.2846467,0.6289 0.6289063,0.6289 h 1.9160156 c 0.3442596,0 0.6289062,-0.28464 0.6289062,-0.6289 v -0.85938 c 0,-0.34426 -0.2846466,-0.6289 -0.6289062,-0.6289 z"
           id="path933371" />
        <path
           style="color:#000000;fill:#fca311;fill-opacity:1;stroke-width:0.802749;stroke-linecap:round;stroke-linejoin:round;-inkscape-stroke:none"
           d="m 4.8632812,285.72266 c -0.3442595,0 -0.6308593,0.28464 -0.6308593,0.6289 v 0.85938 c 0,0.34426 0.2865998,0.6289 0.6308593,0.6289 h 1.9160157 c 0.3442595,0 0.6289062,-0.28464 0.6289062,-0.6289 v -0.85938 c 0,-0.34426 -0.2846467,-0.6289 -0.6289062,-0.6289 z"
           id="path933377" />
        <path
           style="color:#000000;fill:#dc1c4b;fill-opacity:1;stroke-width:0.802749;stroke-linecap:round;stroke-linejoin:round;-inkscape-stroke:none"
           d="m 6.1855469,287.31055 c -0.3442596,0 -0.6289063,0.28464 -0.6289063,0.6289 v 0.85938 a 0.26460996,0.26460996 0 0 0 0.2636719,0.26367 h 2.3808594 a 0.26460996,0.26460996 0 0 0 0.265625,-0.26367 v -0.85938 c 0,-0.34426 -0.2846467,-0.6289 -0.6289063,-0.6289 z"
           id="path933389" />
        <path
           style="color:#000000;fill:#ececec;stroke-width:0.802749;stroke-linecap:round;stroke-linejoin:round;-inkscape-stroke:none"
           d="m 12.435547,285.35742 c -0.435238,0 -0.792969,0.35968 -0.792969,0.79492 v 2.64649 a 0.26460996,0.26460996 0 0 0 0.263672,0.26367 h 4.232422 a 0.26460996,0.26460996 0 0 0 0.265625,-0.26367 v -2.64649 c 0,-0.43524 -0.357731,-0.79492 -0.792969,-0.79492 z"
           id="path932639" />
        <path
           style="color:#000000;fill:#3a4d5c;fill-opacity:1;stroke-width:0.802749;stroke-linecap:round;stroke-linejoin:round;-inkscape-stroke:none"
           d="M 3.96875,287.31055 H 1.0585937 c -0.43617073,0 -0.78502158,0.40365 -0.69531245,0.83789 l 0.90234375,4.36523 14.6875,0.006 0.859375,-3.13476 c 0.0014,-0.005 0.0027,-0.009 0.0039,-0.0137 0.09101,-0.42535 -0.242757,-0.83789 -0.677734,-0.83789 H 5.2910156 c -0.085886,0 -0.1641445,-0.0393 -0.2207031,-0.10351 l -0.451172,-0.7998 C 4.4484262,287.41973 4.2149598,287.31055 3.96875,287.31055 Z"
           id="path874372"
           sodipodi:nodetypes="sscccccssccs" />
        <path
           id="path874564"
           style="color:#000000;fill:#ececec;fill-opacity:1;stroke-width:3.03402;stroke-linecap:round;stroke-linejoin:round;-inkscape-stroke:none"
           d="m 2.5,36 1.2421875,6.001953 H 61.683594 L 63.328125,36 Z"
           transform="matrix(0.26458334,0,0,0.26458334,0,280.06666)" />
        <path
           style="color:#000000;fill:#3a4d5c;fill-opacity:1;stroke-width:0.802749;stroke-linecap:round;stroke-linejoin:round;-inkscape-stroke:none"
           d="m 9.1015625,280.33203 c -0.4060199,0 -0.7402344,0.33422 -0.7402344,0.74024 V 282.5 c 0,0.40602 0.334228,0.74219 0.7402344,0.74219 h 1.9042965 c 0.406006,0 0.742188,-0.33617 0.742188,-0.74219 v -1.42773 c 0,-0.40602 -0.336168,-0.74024 -0.742188,-0.74024 z"
           id="path982945" />
        <path
           style="color:#000000;fill:#fca311;fill-opacity:1;stroke-width:0.802749;stroke-linecap:round;stroke-linejoin:round;-inkscape-stroke:none"
           d="m 3.5390625,284.13477 c -0.3442596,0 -0.6289062,0.28464 -0.6289062,0.6289 v 0.85938 c -1e-7,0.34426 0.2846466,0.6289 0.6289062,0.6289 h 1.9179687 c 0.3442596,0 0.6289063,-0.28464 0.6289063,-0.6289 v -0.85938 c 0,-0.34426 -0.2846467,-0.6289 -0.6289063,-0.6289 z"
           id="path933383" />
        <path
           id="path932655"
           style="color:#000000;fill:#7cb3f4;stroke-width:3.03402;stroke-linecap:round;stroke-linejoin:round;-inkscape-stroke:none"
           d="M 44.003906,23.998047 V 30 h 3.992188 c 1.092733,0 2.001953,-0.909254 2.001953,-2.001953 v -2 c 0,-1.092699 -0.90922,-2 -2.001953,-2 z"
           transform="matrix(0.26458334,0,0,0.26458334,0,280.06666)" />
        <path
           style="color:#000000;fill:#7cb3f4;stroke-width:0.802749;stroke-linecap:round;stroke-linejoin:round;-inkscape-stroke:none"
           d="m 14.287109,286.41602 c -0.289119,0 -0.529297,0.24018 -0.529296,0.52929 v 0.5293 c 0,0.28911 0.240177,0.5293 0.529296,0.5293 h 0.529297 c 0.289119,0 0.529297,-0.24019 0.529297,-0.5293 v -0.5293 c 0,-0.28911 -0.240178,-0.52929 -0.529297,-0.52929 z"
           id="path932661" />
      </g>
      <path
         id="rect3314"
         style="color:#000000;fill:#000000;stroke-width:3.03402;stroke-linecap:round;stroke-linejoin:round;-inkscape-stroke:none"
         d="m 6.0019531,27.378906 h -2 c -1.6485193,0 -2.9679644,1.524794 -2.6289062,3.166016 l 3.2246093,15.595703 -2.90625,0.933594 c -0.522271,0.170491 -0.8091956,0.730386 -0.6425781,1.253906 0.1671941,0.525404 0.7281096,0.816347 1.2539063,0.650391 L 5.86328,47.844701 c 2.2797787,-0.522541 4.421051,-0.483988 6.693359,0.122045 2.749818,0.733266 5.435725,0.733266 8.185547,0 2.443196,-0.652158 4.724122,-0.651142 7.080078,-0.02344 2.693524,0.718413 5.672273,0.714109 8.511718,-0.04297 2.18892,-0.583635 4.472714,-0.585298 6.916016,0.06641 2.749822,0.733266 5.445491,0.733266 8.195312,0 2.46864,-0.658356 4.778113,-0.755316 6.871094,-0.08203 l 3.375,1.09375 c 0.528199,0.17105 1.09462,-0.120929 1.261719,-0.650391 0.165955,-0.525797 -0.124987,-1.086712 -0.650391,-1.253906 l -1.847656,-0.59961 C 61.479871,42.753865 62.57121,38.747315 63.558647,35.165976 63.827782,33.907919 63.11116,32.683685 62,32.208984 v -9.207031 c 0,-1.645001 -1.3511,-3.005859 -2.996094,-3.005859 V 15 c 0,-1.645002 -1.360861,-2.998047 -3.005859,-2.998047 h -2 V 8.0019531 c 0.0022,-0.5522864 -0.443808,-1.0017529 -0.996094,-1.0039062 -0.55534,-0.00217 -1.006079,0.4485665 -1.003906,1.0039062 v 3.9999999 h -2 C 48.353049,12.001953 47,13.354961 47,15 v 4.996094 c -1.644994,0 -2.996094,1.360858 -2.996094,3.005859 V 32 H 42.90625 C 42.338834,25.180224 41.644524,18.737355 41.007812,12.001953 h 0.589844 c 1.534511,0 2.804688,-1.270124 2.804688,-2.8046874 V 3.8007812 c 0,-1.5345637 -1.270124,-2.796875 -2.804688,-2.796875 h -7.197265 c -1.258031,0 -2.332874,0.8485522 -2.679688,2 H 15.996094 c -1.607371,0 -2.649976,1.8467449 -1.822266,3.2246094 0.179147,0.3061755 0.386394,0.6355757 0.5625,0.9238282 l -3.103516,8.9921872 c -0.392424,0.424827 -0.634765,0.991058 -0.634765,1.607422 V 21 c 0,0.128136 0.01315,0.254 0.0332,0.376953 H 8.3789062 c -1.3011386,0 -2.3769531,1.075813 -2.3769531,2.376953 z M 34.400391,3.0039062 h 7.197265 c 0.453646,0 0.804688,0.3431806 0.804688,0.796875 v 5.3964844 c 0,0.4537701 -0.350989,0.8046874 -0.804688,0.8046874 h -7.197265 c -0.4537,0 -0.798829,-0.3508039 -0.798829,-0.8046874 V 3.8007812 c 0,-0.4536566 0.345181,-0.7968749 0.798829,-0.796875 z M 15.996094,4.9960938 H 31.601562 V 8.0019531 H 19.998047 c -2.173945,0 -3.116573,-1.1577994 -4.111328,-2.8066406 -0.0785,-0.1307717 -0.04308,-0.1992187 0.109375,-0.1992187 z m 0.292968,3.7871093 c 0.548593,0.4002624 1.15889,0.7100623 1.808594,0.9160157 L 20.003906,15.375 H 17.996094 V 15 C 17.995024,14.449999 17.549997,14.004101 17,14.001953 16.446953,13.999792 15.99717,14.44695 15.996094,15 v 0.375 H 14.013672 Z M 33.089844,32 H 32 v -2.244141 c 0,-1.30114 -1.075814,-2.376953 -2.376953,-2.376953 H 27.96875 C 27.988801,27.255965 28,27.130076 28,27.001953 v -3.248047 c 0,-1.30114 -1.075815,-2.376953 -2.376953,-2.376953 h -2.652344 c 0.02005,-0.122941 0.03125,-0.24883 0.03125,-0.376953 v -3.248047 c 0,-0.613344 -0.237926,-1.177445 -0.626953,-1.601562 l -2.066406,-6.1562504 11.414062,0.00781 c 0.349288,1.149335 1.422545,2 2.677735,2 h 0.595703 C 34.29348,18.737798 33.7382,25.204489 33.089844,32 Z m 5.917968,-19.998047 c 0.03476,0.658429 0.116329,1.336241 0.179641,1.999997 h -2.371094 c 0.06562,-0.661214 0.127649,-1.346295 0.185541,-1.999997 z m 10.990235,2 h 6 c 0.564143,0 1.005859,0.433915 1.005859,0.998047 v 4.996094 h -8.001953 v -1.992188 h 2 c 0.552286,-0.0022 0.998255,-0.45162 0.996094,-1.003906 -0.0021,-0.549238 -0.446856,-0.993953 -0.996094,-0.996094 h -2 V 15 c 0,-0.564132 0.43195,-0.998047 0.996094,-0.998047 z M 36.625,16.003906 h 2.753906 l 0.189453,2 h -3.132812 z m -23.248052,1.373047 h 2.619141 v 4 H 13.376953 C 13.15669,21.376953 13,21.220346 13,21 v -3.248047 c 0,-0.287831 0.204864,-0.375 0.376948,-0.375 z m 4.619146,0 H 20.625 c 0.261315,0 0.376948,0.23804 0.376948,0.374999 V 21 c 0,0.220346 -0.15669,0.376953 -0.376953,0.376953 h -2.628906 z m 18.25,2.619141 h 3.511718 l 0.173829,1.828125 -1.90625,3.066406 -1.953125,-3.070313 z M 47,21.998047 H 59.003906 C 59.56805,21.998047 60,22.437859 60,23.001953 V 32 H 45.996094 v -2 h 2 c 1.092733,0 2.001953,-0.909254 2.001953,-2.001953 v -2 c 0,-1.092699 -0.90922,-2 -2.001953,-2 h -2 v -0.996094 c 0,-0.564094 0.439762,-1.003906 1.003906,-1.003906 z M 8.3789062,23.376953 h 7.2402348 c 0.220263,0 0.376953,0.156607 0.376953,0.376953 v 3.248047 c 0,0.220347 -0.15669,0.376953 -0.376953,0.376953 H 8.3789062 c -0.2202633,0 -0.3769531,-0.156606 -0.3769531,-0.376953 v -3.248047 c 0,-0.220346 0.1566898,-0.376953 0.3769531,-0.376953 z m 10.0019528,0 h 7.242188 c 0.220263,0 0.375,0.156607 0.375,0.376953 v 3.248047 c 0,0.220347 -0.154737,0.376953 -0.375,0.376953 h -7.242188 c -0.220263,0 -0.384765,-0.156606 -0.384765,-0.376953 v -3.248047 c 0,-0.220346 0.1645,-0.376953 0.384765,-0.376953 z m 35.566407,0.621094 c -1.069796,0.02775 -1.949223,0.924374 -1.949219,2 v 2 c 0,1.092699 0.907267,2.001953 2,2.001953 h 2 C 57.09078,30 58,29.090746 58,27.998047 v -2 c 0,-1.092699 -0.90922,-2 -2.001953,-2 z m -18.183594,1.0625 1.089844,1.714844 -1.480469,2.384765 z m 4.482422,0.04687 0.365234,3.849609 -1.394531,-2.193359 z m 5.75,0.890625 h 2 v 2 h -2 z m 8.001953,0 h 2 v 2 h -2 z M 38.044922,28.648438 40.177734,32 H 35.960938 Z M 21.001953,32 h -1.003906 c -0.324571,0 -0.620204,-0.149895 -0.833985,-0.392578 l -1.28125,-2.283203 h 3.150391 z M 4.0019531,29.378906 c 3.6660156,0 7.3320309,0 10.9980469,0 0.324692,0 0.628025,0.147904 0.841797,0.390625 0.571776,1.02837 1.168592,2.098138 1.75,3.101563 C 18.185329,33.587806 19.06745,34 19.998047,34 h 40.998047 c 0.414848,0 0.692265,0.340286 0.605468,0.746094 L 61.257812,36 H 4.5390625 L 3.3300781,30.146484 c -0.08269,-0.400252 0.2357855,-0.767578 0.671875,-0.767578 z m 19.3769529,0 h 6.244141 C 29.84331,29.378906 30,29.535513 30,29.755859 V 32 h -6.998047 v -2.244141 c 0,-0.220346 0.15669,-0.376953 0.376953,-0.376953 z M 4.953125,38.001953 h 55.753906 l -0.548828,2 H 5.3671875 Z m 0.828125,4 h 53.828125 l -1.060547,3.865235 c -2.441936,-0.690293 -5.031595,-0.524666 -7.621094,0.166015 -2.443324,0.651553 -4.716827,0.651553 -7.160156,0 -2.749837,-0.733379 -5.42473,-0.732332 -7.951172,-0.05859 -2.501907,0.667125 -5.141642,0.658955 -7.476562,0.03711 -2.672489,-0.71263 -5.355524,-0.713105 -8.105469,0.02148 -2.443327,0.651553 -4.716833,0.651553 -7.160156,0 -2.241248,-0.597679 -4.4334898,-0.70579 -6.5351565,-0.361328 z M 1.6914065,51.07421 c -0.523281,0.170477 -0.81045896,0.731739 -0.6425781,1.255859 0.1680212,0.524621 0.7286802,0.814557 1.2539063,0.648438 l 3.3339831,-1.076172 c 2.1907226,-0.581745 4.4792052,-0.58458 6.9199212,0.06641 2.749818,0.733266 5.435725,0.733266 8.185547,0 2.443196,-0.652195 4.724122,-0.651179 7.080078,-0.02344 2.693524,0.718375 5.672273,0.712118 8.511718,-0.04492 2.18892,-0.583673 4.472714,-0.585336 6.916016,0.06641 2.749822,0.733266 5.445491,0.733266 8.195312,0 2.46864,-0.658394 4.778113,-0.753401 6.871094,-0.08008 l 3.375,1.083984 c 0.525345,0.171858 1.090474,-0.11508 1.261719,-0.640625 0.167223,-0.526399 -0.123977,-1.088685 -0.650391,-1.255859 l -3.373046,-1.091797 c -1.2763,-0.410627 -2.596646,-0.579448 -3.9375,-0.554688 l 2e-6,4e-6 c -1.340855,0.02476 -2.702202,0.242105 -4.064454,0.605469 -2.443324,0.651553 -4.716827,0.651553 -7.160156,0 -2.749837,-0.733417 -5.42473,-0.739994 -7.951172,-0.06641 -2.501907,0.667124 -5.141642,0.66775 -7.476562,0.04492 -2.672489,-0.712668 -5.355524,-0.713105 -8.105469,0.02148 -2.443327,0.651553 -4.716833,0.651553 -7.160156,0 -2.749828,-0.733342 -5.4247401,-0.73988 -7.9765626,-0.05859 z"
         transform="matrix(0.26458334,0,0,0.26458334,0,280.06666)"
         sodipodi:nodetypes="cscccccccccsccccsccccscssccsccsscscccssssscscccsscsccssssssssssccccscccccsccccccsscssscsscccsccccccccsccccsccsscscccsccccscccccccccscccssscccsssscsssscsscccsscccssssscccssssccccccccccccccccccccccsccsccscccccccccccssccccssccccccccccccccccsccccccccccccccscsccccccccc" />
    </g>
  </g>
</svg>
