<?xml version="1.0" encoding="UTF-8" standalone="no"?>
<svg
   width="64pt"
   height="64pt"
   viewBox="0 0 22.577778 22.577778"
   version="1.1"
   id="svg831"
   inkscape:version="1.1.2 (1:1.1+202202050950+0a00cf5339)"
   sodipodi:docname="3 - Wishlist.svg"
   inkscape:export-filename="/media/taufikramadhan/Data/Tr Design Studio/Project Design/TR Creative Design/Icon Design/Project Hiring/Icon Icons/019 - Commerce And Shopping/5 - Send/3 - Wishlish.png"
   inkscape:export-xdpi="576"
   inkscape:export-ydpi="576"
   xmlns:inkscape="http://www.inkscape.org/namespaces/inkscape"
   xmlns:sodipodi="http://sodipodi.sourceforge.net/DTD/sodipodi-0.dtd"
   xmlns="http://www.w3.org/2000/svg"
   xmlns:svg="http://www.w3.org/2000/svg"
   xmlns:rdf="http://www.w3.org/1999/02/22-rdf-syntax-ns#"
   xmlns:cc="http://creativecommons.org/ns#"
   xmlns:dc="http://purl.org/dc/elements/1.1/">
  <defs
     id="defs825">
    <pattern
       id="EMFhbasepattern"
       patternUnits="userSpaceOnUse"
       width="6"
       height="6"
       x="0"
       y="0" />
    <pattern
       id="EMFhbasepattern-9"
       patternUnits="userSpaceOnUse"
       width="6"
       height="6"
       x="0"
       y="0" />
    <pattern
       id="EMFhbasepattern-0"
       patternUnits="userSpaceOnUse"
       width="6"
       height="6"
       x="0"
       y="0" />
    <pattern
       id="EMFhbasepattern-7"
       patternUnits="userSpaceOnUse"
       width="6"
       height="6"
       x="0"
       y="0" />
    <pattern
       id="EMFhbasepattern-2"
       patternUnits="userSpaceOnUse"
       width="6"
       height="6"
       x="0"
       y="0" />
    <pattern
       id="EMFhbasepattern-98"
       patternUnits="userSpaceOnUse"
       width="6"
       height="6"
       x="0"
       y="0" />
    <pattern
       id="EMFhbasepattern-6"
       patternUnits="userSpaceOnUse"
       width="6"
       height="6"
       x="0"
       y="0" />
    <pattern
       id="EMFhbasepattern-01"
       patternUnits="userSpaceOnUse"
       width="6"
       height="6"
       x="0"
       y="0" />
    <pattern
       id="EMFhbasepattern-07"
       patternUnits="userSpaceOnUse"
       width="6"
       height="6"
       x="0"
       y="0" />
    <pattern
       id="EMFhbasepattern-8"
       patternUnits="userSpaceOnUse"
       width="6"
       height="6"
       x="0"
       y="0" />
    <pattern
       id="EMFhbasepattern-4"
       patternUnits="userSpaceOnUse"
       width="6"
       height="6"
       x="0"
       y="0" />
    <pattern
       id="EMFhbasepattern-40"
       patternUnits="userSpaceOnUse"
       width="6"
       height="6"
       x="0"
       y="0" />
    <pattern
       id="EMFhbasepattern-08"
       patternUnits="userSpaceOnUse"
       width="6"
       height="6"
       x="0"
       y="0" />
    <pattern
       id="EMFhbasepattern-04"
       patternUnits="userSpaceOnUse"
       width="6"
       height="6"
       x="0"
       y="0" />
    <pattern
       id="EMFhbasepattern-014"
       patternUnits="userSpaceOnUse"
       width="6"
       height="6"
       x="0"
       y="0" />
    <pattern
       id="EMFhbasepattern-27"
       patternUnits="userSpaceOnUse"
       width="6"
       height="6"
       x="0"
       y="0" />
    <pattern
       id="EMFhbasepattern-09"
       patternUnits="userSpaceOnUse"
       width="6"
       height="6"
       x="0"
       y="0" />
    <pattern
       id="EMFhbasepattern-5"
       patternUnits="userSpaceOnUse"
       width="6"
       height="6"
       x="0"
       y="0" />
    <pattern
       id="EMFhbasepattern-018"
       patternUnits="userSpaceOnUse"
       width="6"
       height="6"
       x="0"
       y="0" />
  </defs>
  <sodipodi:namedview
     id="base"
     pagecolor="#ffffff"
     bordercolor="#666666"
     borderopacity="1.0"
     inkscape:pageopacity="0.0"
     inkscape:pageshadow="2"
     inkscape:zoom="4.4249417"
     inkscape:cx="33.559764"
     inkscape:cy="45.876311"
     inkscape:document-units="pt"
     inkscape:current-layer="layer1"
     showgrid="false"
     units="pt"
     inkscape:window-width="1366"
     inkscape:window-height="705"
     inkscape:window-x="0"
     inkscape:window-y="31"
     inkscape:window-maximized="1"
     inkscape:pagecheckerboard="true"
     inkscape:showpageshadow="false"
     inkscape:object-paths="true"
     inkscape:snap-intersection-paths="true"
     inkscape:snap-smooth-nodes="true"
     inkscape:snap-midpoints="true"
     showguides="true"
     inkscape:snap-bbox="true"
     inkscape:bbox-nodes="true"
     inkscape:snap-nodes="false"
     inkscape:snap-global="true"
     inkscape:document-rotation="0">
    <inkscape:grid
       type="xygrid"
       id="grid1378" />
    <sodipodi:guide
       position="0.97013831,21.607643"
       orientation="78.000048,0"
       id="guide1380"
       inkscape:locked="false" />
    <sodipodi:guide
       position="0.97013831,0.97013129"
       orientation="0,78.000005"
       id="guide1382"
       inkscape:locked="false" />
    <sodipodi:guide
       position="21.607639,0.97013129"
       orientation="-78.000048,0"
       id="guide1384"
       inkscape:locked="false" />
    <sodipodi:guide
       position="21.607639,21.607643"
       orientation="0,-78.000005"
       id="guide1386"
       inkscape:locked="false" />
  </sodipodi:namedview>
  <metadata
     id="metadata828">
    <rdf:RDF>
      <cc:Work
         rdf:about="">
        <dc:format>image/svg+xml</dc:format>
        <dc:type
           rdf:resource="http://purl.org/dc/dcmitype/StillImage" />
      </cc:Work>
    </rdf:RDF>
  </metadata>
  <g
     inkscape:label="Icon"
     inkscape:groupmode="layer"
     id="layer1"
     transform="translate(0,-274.42223)">
    <g
       id="g22583"
       style="display:inline;stroke-width:0.794876"
       transform="matrix(1.2580576,0,0,1.2580576,0.63717477,-38.905779)">
      <g
         id="g2267070"
         style="display:inline;stroke-width:0.794876">
        <path
           style="color:#000000;clip-rule:evenodd;fill:#dc1c4b;fill-rule:evenodd;stroke-width:0.794876;stroke-linecap:round;stroke-linejoin:round;stroke-miterlimit:1.5;-inkscape-stroke:none"
           d="m 5.6132812,250.88672 c -0.7644052,0 -1.3808593,0.64627 -1.3808593,1.42383 v 11.80468 a 0.26460996,0.26460996 0 0 0 0.265625,0.26563 H 13.4375 c 0.764332,0 1.378906,-0.64607 1.378906,-1.42383 v -10.64648 c 0,-0.77756 -0.6145,-1.42383 -1.378906,-1.42383 z"
           id="path459496" />
        <path
           style="color:#000000;clip-rule:evenodd;fill:#ececec;fill-rule:evenodd;stroke-width:0.794876;stroke-linecap:round;stroke-linejoin:round;stroke-miterlimit:1.5;-inkscape-stroke:none"
           d="m 3.4824778,266.23236 h 5.6756236 c 0.3931134,0 0.7639727,-0.19156 1.0252606,-0.50953 0.261239,-0.31792 0.400492,-0.73412 0.400492,-1.16634 v -4.14445 c 0,-0.31593 0.08583,-0.58627 0.22686,-0.76739 0.141032,-0.18112 0.327122,-0.28674 0.609265,-0.29094 h 0.0155 v -10e-4 c 0.138763,-0.01 0.247584,-0.12575 0.24598,-0.26665 -0.0015,-0.13916 -0.109723,-0.25171 -0.24598,-0.26097 v -10e-4 h -0.02325 l -7.3850824,-6e-5 c -0.7906605,0 -1.3807943,0.75503 -1.3807943,1.62315 v 2.87528 0.79272 z"
           id="path2143137"
           sodipodi:nodetypes="cscsssccccccccsccc" />
        <path
           style="color:#000000;clip-rule:evenodd;fill:#ececec;fill-rule:evenodd;stroke-width:0.794876;stroke-linecap:round;stroke-linejoin:round;stroke-miterlimit:1.5;-inkscape-stroke:none"
           d="m 12.144974,261.95831 c 0.0019,0.21689 0.102836,0.40425 0.241839,0.54365 0.139001,0.13941 0.327181,0.23991 0.545586,0.23991 0.218406,0 0.406121,-0.10044 0.545587,-0.23991 0.139467,-0.13946 0.239905,-0.32717 0.239905,-0.54558 v -9.69869 c -5.12e-4,-0.14404 -0.117149,-0.26068 -0.261186,-0.26118 l -7.8626469,-5e-5 c -0.1447912,-5.6e-4 -0.2626067,0.11639 -0.26312,0.26118 v 6.81404 c -5.622e-4,0.14556 0.1175698,0.26368 0.26312,0.26313 h 5.7944459 c 0.208,0.002 0.381514,0.0893 0.520436,0.26311 0.139333,0.17425 0.236034,0.44175 0.236034,0.78549 z"
           id="path459490"
           sodipodi:nodetypes="csssscccccccccc" />
        <path
           id="path2258204"
           style="color:#000000;clip-rule:evenodd;fill:#cccccc;fill-opacity:1;fill-rule:evenodd;stroke-width:0.794876;stroke-linecap:round;stroke-linejoin:round;stroke-miterlimit:1.5;-inkscape-stroke:none"
           d="m 11.681455,259.08606 c -0.0015,-0.13916 -0.109723,-0.25171 -0.24598,-0.26097 v -10e-4 h -0.02326 l -0.654212,-2e-5 c -0.680677,-2e-5 -1.2324858,0.55177 -1.2324858,1.23245 v 3.44164 c 0,1.41311 -0.5928402,1.66052 -1.4257528,1.67587 H 3.0644127 l 0.4180623,1.05833 h 5.6756228 c 0.3931134,0 0.7639725,-0.19156 1.0252602,-0.50953 0.261239,-0.31792 0.400493,-0.73411 0.400493,-1.16633 v -4.14445 c 0,-0.31593 0.08583,-0.58628 0.226859,-0.7674 0.141032,-0.18112 0.327122,-0.28674 0.617015,-0.29144 0.146513,-0.0105 0.255334,-0.12625 0.25373,-0.26715 z"
           sodipodi:nodetypes="cccccccccscsssccc" />
        <path
           style="color:#000000;clip-rule:evenodd;fill:#adadad;fill-opacity:1;fill-rule:evenodd;stroke-width:0.794876;stroke-linecap:round;stroke-linejoin:round;stroke-miterlimit:1.5;-inkscape-stroke:none"
           d="M 7.9375,264.11518 H 2.4024372 v 10e-4 c -0.00713,-5.6e-4 -0.01443,-10e-4 -0.021704,-10e-4 h -3e-7 c -0.1461788,5e-4 -0.2641287,0.11944 -0.2635498,0.26562 v 0.22841 c 0,0.864 0.5803691,1.618 1.3632244,1.62315 H 9.097119 c 8.625e-4,10e-6 0.00172,10e-6 0.00259,0 0.1459242,2.9e-4 0.2645303,-0.11762 0.2651001,-0.26355 -1.0726337,0 -1.4273043,-0.40099 -1.4273043,-1.85363 z"
           id="path2123312"
           sodipodi:nodetypes="cccsscsccccc" />
        <path
           id="path2157754"
           style="color:#000000;clip-rule:evenodd;fill:#cccccc;fill-opacity:1;fill-rule:evenodd;stroke-width:0.794876;stroke-linecap:round;stroke-linejoin:round;stroke-miterlimit:1.5;-inkscape-stroke:none"
           d="m 5.5567667,251.94538 c -0.1461204,-5.3e-4 -0.2650334,0.11743 -0.2656168,0.26355 v 0.79478 h 5.1226871 a 2.2856465,2.2856465 45 0 1 2.285646,2.28565 v 7.45226 c 0.08192,0.0325 0.170927,0.0512 0.265617,0.0512 0.220485,0 0.40956,-0.10106 0.550354,-0.24185 0.140794,-0.14079 0.242363,-0.33038 0.242363,-0.55087 v -9.79113 c -5.82e-4,-0.14532 -0.118236,-0.26297 -0.26355,-0.26355 z"
           sodipodi:nodetypes="cccccsssccc" />
        <path
           style="color:#000000;fill:#3a4d5c;fill-opacity:1;stroke-width:0.794876;stroke-linecap:round;stroke-linejoin:round;stroke-miterlimit:1.5;-inkscape-stroke:none"
           d="m 6.8789062,250.88672 a 0.26460996,0.26460996 0 0 0 -0.2636718,0.26367 v 1.05859 c 0,0.43524 0.3577315,0.79493 0.7929687,0.79493 h 4.2343749 c 0.435237,0 0.792969,-0.35969 0.792969,-0.79493 v -1.05859 a 0.26460996,0.26460996 0 0 0 -0.265625,-0.26367 z"
           id="path459484" />
        <path
           style="color:#000000;clip-rule:evenodd;fill:#5f8ea2;fill-rule:evenodd;stroke-width:0.794876;stroke-linecap:round;stroke-linejoin:round;stroke-miterlimit:1.5;-inkscape-stroke:none"
           d="m 9.5043297,249.82819 c -0.2161226,0.006 -0.4025088,0.10972 -0.5374349,0.24805 -0.078345,0.0803 -0.1436542,0.17514 -0.1855185,0.28112 H 7.9375002 c -0.1461725,5.3e-4 -0.2641142,0.11945 -0.2635499,0.26562 v 1.05678 c -5.556e-4,0.14617 0.1173814,0.2651 0.2635499,0.26562 h 3.1760338 c 0.146169,-5.3e-4 0.264109,-0.11945 0.26355,-0.26562 v -1.05678 c 5.55e-4,-0.14617 -0.117377,-0.2651 -0.26355,-0.26562 h -0.84646 c -0.04186,-0.10598 -0.106658,-0.2008 -0.185002,-0.28112 -0.1392785,-0.14279 -0.331515,-0.24803 -0.556555,-0.24805 -0.00703,0 -0.014216,-2e-4 -0.021187,0 z"
           id="path459478" />
        <path
           style="color:#000000;clip-rule:evenodd;fill:#5f8ea2;fill-rule:evenodd;stroke-width:0.794876;stroke-linecap:round;stroke-linejoin:round;stroke-miterlimit:1.5;-inkscape-stroke:none"
           d="m 8.8515625,253.79687 a 0.26460996,0.26460996 0 0 0 -0.2519531,0.33985 l 0.3105469,1.05859 a 0.26460996,0.26460996 0 0 0 0.2539062,0.18946 h 1.2812505 a 0.26460996,0.26460996 0 0 0 0.255859,-0.19727 l 0.277344,-1.05859 a 0.26460996,0.26460996 0 0 0 -0.25586,-0.33204 z"
           id="path459466" />
        <path
           style="color:#000000;clip-rule:evenodd;fill:#50b86b;fill-rule:evenodd;stroke-width:0.794876;stroke-linecap:round;stroke-linejoin:round;stroke-miterlimit:1.5;-inkscape-stroke:none"
           d="m 6.6152344,256.6543 a 0.26460996,0.26460996 0 0 0 -0.265625,0.26562 v 1.0586 a 0.26460996,0.26460996 0 0 0 0.265625,0.26367 H 7.6738281 A 0.26460996,0.26460996 0 0 0 7.9375,257.97852 v -1.0586 A 0.26460996,0.26460996 0 0 0 7.6738281,256.6543 Z"
           id="path459628" />
        <path
           style="color:#000000;fill:#adadad;fill-opacity:1;stroke-width:0.794876;stroke-linecap:round;stroke-linejoin:round;stroke-miterlimit:1.5;-inkscape-stroke:none"
           d="m 10.414063,262.79297 h 2.550781 c 0.352867,0 0.352867,-0.5293 0,-0.5293 -0.0441,0 -0.118245,-0.0302 -0.175781,-0.0879 -0.05754,-0.0577 -0.08945,-0.13405 -0.08984,-0.17969 -10e-6,-0.61508 -0.0019,-0.96901 0,-1.58398 0,-0.44673 -0.125576,-0.8383 -0.359375,-1.125 -0.233799,-0.2867 -0.580591,-0.4604 -0.960938,-0.46289 -0.0013,-10e-6 -0.0026,-10e-6 -0.0039,0 l -10e-6,1e-5 c -0.38022,0.003 -0.727137,0.17626 -0.960937,0.46289 z"
           id="path459436"
           sodipodi:nodetypes="ccssccsscccc" />
        <path
           id="path2189425"
           style="color:#000000;fill:#8f8f8f;fill-opacity:1;stroke-width:0.794876;stroke-linecap:round;stroke-linejoin:round;stroke-miterlimit:1.5;-inkscape-stroke:none"
           d="m 11.375017,258.82403 c -0.38022,0.003 -0.727382,0.17639 -0.961182,0.46302 v 0.59945 c 0.735179,0 1.219163,0.40614 1.226798,1.11875 -0.0016,0.51341 -3.96e-4,1.33415 0,1.78753 H 12.9651 c 0.352868,0 0.352868,-0.52917 0,-0.52917 -0.0441,0 -0.11868,-0.0302 -0.176216,-0.0879 -0.05754,-0.0577 -0.08953,-0.13419 -0.08992,-0.17983 -10e-6,-0.61508 -0.0019,-0.96891 0,-1.58388 0,-0.44673 -0.125352,-0.8383 -0.359151,-1.125 -0.233799,-0.2867 -0.580318,-0.46053 -0.960665,-0.46302 -0.0013,-1e-5 -0.0028,-1e-5 -0.0041,0 z"
           sodipodi:nodetypes="cccccsssccsscc" />
        <path
           style="color:#000000;clip-rule:evenodd;fill:#50b86b;fill-rule:evenodd;stroke-width:0.794876;stroke-linecap:round;stroke-linejoin:round;stroke-miterlimit:1.5;-inkscape-stroke:none"
           d="m 3.96875,262 a 0.26460996,0.26460996 0 0 0 -0.2636719,0.26367 v 1.0586 a 0.26460996,0.26460996 0 0 0 0.2636719,0.26367 h 1.0585937 a 0.26460996,0.26460996 0 0 0 0.2636719,-0.26367 v -1.0586 A 0.26460996,0.26460996 0 0 0 5.0273437,262 Z"
           id="path459622" />
        <path
           id="path2241346"
           style="color:#000000;clip-rule:evenodd;fill:#8f8f8f;fill-opacity:1;fill-rule:evenodd;stroke-width:0.794876;stroke-linecap:round;stroke-linejoin:round;stroke-miterlimit:1.5;-inkscape-stroke:none"
           d="m 2.3807331,264.11518 c -0.1461788,5e-4 -0.2641287,0.11944 -0.2635498,0.26562 v 0.22841 c 0,0.19626 0.030315,0.38687 0.085783,0.5643 h 4.4073673 c 0.1484724,0 0.2662776,0.12189 0.2971198,0.26685 0.072402,0.34028 0.2776247,0.6383 0.5438422,0.792 h 1.6458236 c 8.625e-4,10e-6 0.00171,10e-6 0.00259,0 0.1459242,2.9e-4 0.2645303,-0.11762 0.2651001,-0.26355 -1.0726349,0 -1.4273043,-0.40099 -1.4273043,-1.85363 H 2.4024422 v 10e-4 c -0.00713,-5.6e-4 -0.01443,-10e-4 -0.021704,-10e-4 z"
           sodipodi:nodetypes="scscccccccccss" />
        <path
           style="color:#000000;clip-rule:evenodd;fill:#5f8ea2;fill-rule:evenodd;stroke-width:0.794876;stroke-linecap:round;stroke-linejoin:round;stroke-miterlimit:1.5;-inkscape-stroke:none"
           d="m 3.96875,259.88281 a 0.26460996,0.26460996 0 0 0 -0.2636719,0.26367 v 1.0586 A 0.26460996,0.26460996 0 0 0 3.96875,261.4707 h 1.0585937 a 0.26460996,0.26460996 0 0 0 0.2636719,-0.26562 v -1.0586 a 0.26460996,0.26460996 0 0 0 -0.2636719,-0.26367 z"
           id="path459616" />
      </g>
      <path
         id="path61548"
         style="color:#000000;clip-rule:evenodd;fill:#000000;fill-rule:evenodd;stroke-width:3.00426;stroke-linecap:round;stroke-linejoin:round;stroke-miterlimit:1.5;-inkscape-stroke:none"
         d="m 33.890625,-113.34961 c -0.296105,0.30357 -0.542945,0.66193 -0.701172,1.0625 H 30 c -0.552463,0.002 -0.998227,0.45145 -0.996094,1.00391 v 0.99609 h -7.789062 c -2.889091,0 -5.21875,2.444 -5.21875,5.38281 v 20.617191 c -0.0022,0.555363 0.448535,1.006098 1.003906,1.003906 0.552486,-0.0019 0.998282,-0.451415 0.996094,-1.003906 V -104.9043 c 0,-1.89925 1.453848,-3.38086 3.21875,-3.38086 h 3.787109 v 2 h -4 c -0.552452,-0.002 -1.001948,0.44364 -1.003906,0.9961 v 25.001951 h -4.777344 c -2.988321,0 -5.21875,2.853682 -5.21875,6.134765 v 10.867188 c 0.0021,0.549238 0.446856,0.993953 0.996094,0.996094 0.553048,0.0032 1.003708,-0.443041 1.005859,-0.996094 v -10.867188 c 0,-2.392932 1.543663,-4.132812 3.216797,-4.132812 h 23.947266 c -0.759516,1.055927 -1.166016,2.439023 -1.166016,4 v 15.664062 c 0,1.198413 -0.39694,2.338206 -1.054687,3.138672 -0.657554,0.800202 -1.492059,1.195313 -2.333985,1.195313 h -0.443359 c -1.644547,-0.01134 -3.173828,-1.748259 -3.173828,-4.134766 v -0.863281 C 30.998255,-59.837442 30.552286,-60.286909 30,-60.289062 H 8.9980469 c -0.5522863,0.0022 -0.9982549,0.45162 -0.9960938,1.003906 v 0.863281 c 0,3.265512 2.1967079,6.112882 5.1601559,6.134766 h 21.451172 c 1.485782,0 2.887455,-0.724005 3.875,-1.925782 0.98736,-1.201587 1.513672,-2.774615 1.513672,-4.408203 v -0.664062 h 10.785156 c 2.888814,0 5.210938,-2.441294 5.210938,-5.38086 V -104.9043 c 0,-2.93881 -2.321844,-5.38281 -5.210938,-5.38281 H 43 v -0.99609 c 0.0021,-0.55246 -0.443629,-1.00194 -0.996094,-1.00391 h -3.199218 c -0.158228,-0.40057 -0.403116,-0.75893 -0.699219,-1.0625 -0.526408,-0.53968 -1.252971,-0.9375 -2.143555,-0.9375 -0.85688,0.0238 -1.561332,0.41469 -2.071289,0.9375 z m 2.11133,1.0625 c 0.197,0 0.466031,0.11509 0.677735,0.33203 0.211702,0.21695 0.318359,0.51162 0.318359,0.67188 0.0022,0.55228 0.451621,0.99825 1.003906,0.99609 0.02741,-8.7e-4 0.05478,-0.003 0.08203,-0.006 v 0.006 h 2.914063 v 2.00195 H 30.996094 v -2.00195 h 2.945312 v -0.002 c 0.02016,10e-4 0.04035,0.002 0.06055,0.002 0.549236,-0.002 0.99395,-0.44685 0.996094,-0.99609 0,-0.16026 0.112516,-0.45482 0.324219,-0.67188 0.211702,-0.21694 0.482685,-0.33203 0.679686,-0.33203 z m -8.998047,4.00195 h 2 v 0.9961 c -0.0021,0.55245 0.443646,1.00194 0.996094,1.0039 h 12.003906 c 0.55245,-0.002 0.998207,-0.45145 0.996094,-1.0039 v -0.9961 h 2 v 2.9961 c 0,0.56413 -0.431961,1.0039 -0.996094,1.0039 H 28 c -0.564132,0 -0.996094,-0.43977 -0.996094,-1.0039 z m 19.996094,0 h 3.787109 c 1.764907,0 3.210938,1.48161 3.210938,3.38086 v 40.238284 c 0,1.900422 -1.445751,3.38086 -3.210938,3.38086 H 40.001953 v -4.001953 h 9 c 0.833329,0 1.547943,-0.381943 2.080078,-0.914063 0.532135,-0.53212 0.916012,-1.248683 0.916016,-2.082031 v -37.005857 c -0.002,-0.54958 -0.44652,-0.99417 -0.996094,-0.9961 H 47 Z m -25.001955,27.998052 2e-6,-23.998052 h 3.179687 c 0.416069,1.15946 1.528441,2 2.822266,2 h 16.003906 c 1.293825,0 2.406197,-0.84054 2.822266,-2 h 3.171875 v 35.986332 c 0,0.572283 -0.482386,1.011719 -1.000976,1.011719 -0.482042,0 -1.000977,-0.418404 -1.000977,-1.011719 -3.8e-5,-2.324712 -0.0072,-3.662032 0,-5.986328 0,-1.688429 -0.473772,-3.168363 -1.357422,-4.251953 -0.817861,-1.002916 -2.000628,-1.743164 -3.365234,-1.743164 z m 9.478517,-19.996092 c -0.549236,0.002 -0.99395,0.446855 -0.996093,0.996091 -0.0022,0.552286 0.443807,1.001752 0.996093,1.003906 h 0.916016 l 0.125,0.347656 c 0.0038,0.0092 0.0077,0.01829 0.01172,0.02734 l 1.146484,3.90625 c 0.125743,0.425711 0.517046,0.717597 0.960938,0.716797 h 4.841797 c 0.454323,-2.32e-4 0.851407,-0.306669 0.966796,-0.746094 l 1.048829,-4.001953 c 0.166277,-0.633752 -0.311596,-1.253538 -0.966797,-1.253906 h -6.376953 l -0.126953,-0.347657 c -0.146685,-0.39051 -0.520349,-0.64896 -0.9375,-0.64843 z m 3.322266,2.996091 h 4.427734 l -0.523437,2 h -3.314453 z m 0.677734,4.583984 c -0.552286,-0.0022 -1.001753,0.443808 -1.003906,0.996094 v 0.421875 c 0.0022,0.552286 0.45162,0.998255 1.003906,0.996094 0.550001,-0.0011 0.995899,-0.446097 0.998047,-0.996094 v -0.421875 c -0.0021,-0.549997 -0.448046,-0.995024 -0.998047,-0.996094 z m 2.998047,0 c -0.549238,0.0021 -0.993952,0.446856 -0.996093,0.996094 v 0.421875 c 0.0021,0.549238 0.446855,0.993952 0.996093,0.996094 0.552287,0.0022 1.001754,-0.443807 1.003907,-0.996094 v -0.421875 c -0.0022,-0.552287 -0.45162,-0.998256 -1.003907,-0.996094 z m -13.472656,4.214844 c -0.555317,-0.0021 -1.006023,0.448589 -1.003906,1.003906 v 4.001953 c 0.0022,0.552263 0.451642,0.9982 1.003906,0.996094 h 4.001953 c 0.549215,-0.0022 0.993896,-0.446879 0.996092,-0.996094 v -4.001953 c 0.0021,-0.552264 -0.443831,-1.001698 -0.996094,-1.003906 z m 7.994141,0.199219 c -0.552287,0.0022 -0.998257,0.451619 -0.996096,1.003906 0.0011,0.550001 0.446097,0.995899 0.996094,0.998047 H 43 c 0.553047,0.0022 1.00283,-0.444997 1.003906,-0.998047 0.0022,-0.55534 -0.448566,-1.006079 -1.003906,-1.003906 z m -6.998047,1.802734 H 28 v 2 h -2.001953 z m 6.998047,2.199219 c -0.552287,0.0022 -0.998257,0.451619 -0.996096,1.003906 0.0021,0.549238 0.446856,0.993953 0.996094,0.996094 h 13 c 0.552286,0.0022 1.001753,-0.443808 1.003906,-0.996094 0.0022,-0.55534 -0.448566,-1.006079 -1.003906,-1.003906 z m 12.999998,16.011706 c 0.0031,0.351748 0.0755,0.682637 0.197265,0.988282 h -6.191406 v -6.998047 c 0,-1.311572 0.367863,-2.327797 0.908203,-2.990235 0.538798,-0.66051 1.21645,-1.009759 2.089844,-1.009759 0.86298,0.0076 1.549085,0.349223 2.087891,1.009771 0.540344,0.662627 0.908203,1.678663 0.908203,2.990235 z M 15,-76.285156 c -0.549215,0.0022 -0.993898,0.446879 -0.996094,0.996094 v 4.001953 c -0.0021,0.552264 0.443831,1.001698 0.996094,1.003906 h 4.001953 c 0.552263,-0.0022 0.9982,-0.451642 0.996094,-1.003906 v -4.001953 c -0.0022,-0.549215 -0.446879,-0.993898 -0.996094,-0.996094 z m 8.001953,0 c -0.552286,-0.0022 -1.001753,0.443808 -1.003906,0.996094 -0.0022,0.55534 0.448566,1.006079 1.003906,1.003906 h 6.001953 c 0.552286,-0.0022 0.998255,-0.45162 0.996094,-1.003906 -0.0021,-0.549238 -0.446856,-0.993953 -0.996094,-0.996094 z m -7.005859,2 h 2 v 2 h -2 z m 7.005859,2 c -0.553047,-0.0022 -1.00283,0.444997 -1.003906,0.998047 -0.0022,0.55534 0.448566,1.006079 1.003906,1.003906 h 2 c 0.552286,-0.0022 0.998255,-0.45162 0.996094,-1.003906 -0.0011,-0.550001 -0.446097,-0.995899 -0.996094,-0.998047 z m 6.001953,0 c -0.553047,-0.0022 -1.00283,0.444997 -1.003906,0.998047 -0.0022,0.55534 0.448566,1.006079 1.003906,1.003906 h 5.994141 c 0.55534,0.0022 1.006079,-0.448566 1.003906,-1.003906 -0.0011,-0.55305 -0.450859,-1.000208 -1.003906,-0.998047 z M 15,-68.283203 c -0.549215,0.0022 -0.993898,0.446879 -0.996094,0.996094 v 4.001953 c 0.0022,0.549215 0.446879,0.993898 0.996094,0.996094 h 4.001953 c 0.549215,-0.0022 0.993898,-0.446879 0.996094,-0.996094 v -4.001953 c -0.0022,-0.549215 -0.446879,-0.993898 -0.996094,-0.996094 z m 8.001953,0 c -0.552286,-0.0022 -1.001753,0.443808 -1.003906,0.996094 -0.0022,0.55534 0.448566,1.006079 1.003906,1.003906 h 11.996094 c 0.55534,0.0022 1.006079,-0.448566 1.003906,-1.003906 -0.0022,-0.552286 -0.45162,-0.998255 -1.003906,-0.996094 z m -7.005859,2 h 2 v 1.994141 h -2 z m 7.005859,1.994141 c -0.55534,-0.0022 -1.006079,0.448566 -1.003906,1.003906 0.0022,0.552286 0.45162,0.998255 1.003906,0.996094 h 6.001953 c 0.549238,-0.0021 0.993953,-0.446856 0.996094,-0.996094 0.0022,-0.552286 -0.443808,-1.001753 -0.996094,-1.003906 z m -12.998047,6 h 19.001953 c 0.02726,1.512549 0.522701,2.926014 1.345703,4.001953 H 13.175781 c -1.613898,-0.01113 -3.116404,-1.684083 -3.171875,-4.001953 z"
         sodipodi:nodetypes="sccccsscccsscccccsscccssccccscsccccscscscssssccccscssscccccccccccccsccccccccssssccssssccssccccccccssccccccscccsccccccccccccccccccccccccccsccsccsccccccccccccccccccccccsccscccccccccccccccccccccsccscccccccccccccccccccccccccccccccsccsccccccccsccsccccccc"
         transform="matrix(0.26458334,0,0,0.26458334,0,280.06666)" />
    </g>
  </g>
</svg>
